<svg width="166" height="32" viewBox="0 0 166 32" fill="none" xmlns="http://www.w3.org/2000/svg">
<path d="M107.5 31.1538V1.36841H112.469V31.1538H107.5Z" fill="white"/>
<path d="M125.394 31.4363C123.96 31.4673 122.536 31.1864 121.219 30.6128C120.102 30.1286 119.143 29.3357 118.454 28.3253C117.804 27.3464 117.465 26.1914 117.481 25.0134C117.464 23.8705 117.76 22.745 118.336 21.761C118.904 20.7984 119.838 20.0359 121.138 19.4736C122.437 18.9113 124.16 18.6301 126.308 18.6301H132.472V21.9597H126.663C124.965 21.9597 123.825 22.2343 123.242 22.7833C122.96 23.0376 122.736 23.3504 122.585 23.7002C122.434 24.0501 122.36 24.4287 122.367 24.8102C122.355 25.2327 122.446 25.6518 122.634 26.0298C122.821 26.4078 123.098 26.7329 123.441 26.9762C124.155 27.5135 125.15 27.7814 126.424 27.7799C127.573 27.7984 128.705 27.5072 129.705 26.9365C130.668 26.3798 131.407 25.499 131.792 24.4481L132.627 27.4598C132.151 28.7174 131.24 29.7583 130.062 30.3897C128.834 31.0875 127.278 31.4363 125.394 31.4363ZM132.074 31.1537V26.8173L131.796 25.8943V18.3078C131.796 16.8358 131.359 15.6921 130.484 14.8766C129.609 14.0611 128.283 13.6527 126.507 13.6512C125.312 13.6516 124.125 13.8416 122.988 14.2142C121.923 14.5406 120.931 15.0714 120.066 15.7775L118.117 12.1233C119.335 11.2013 120.719 10.5265 122.192 10.1361C123.792 9.69141 125.445 9.46857 127.105 9.47372C130.18 9.47372 132.559 10.2163 134.242 11.7016C135.924 13.1868 136.766 15.4823 136.768 18.5882V31.1515L132.074 31.1537Z" fill="white"/>
<path d="M143.131 31.1538V1.36841H148.098V14.6957L147.702 20.3966L147.86 26.0954V31.1538H143.131ZM154.9 31.4364C153.219 31.4678 151.56 31.052 150.088 30.2309C148.644 29.3855 147.486 28.1186 146.768 26.5966C145.959 24.9774 145.555 22.9233 145.556 20.4342C145.556 17.92 145.974 15.8593 146.81 14.2519C147.554 12.7398 148.732 11.4883 150.189 10.6595C151.633 9.86235 153.255 9.454 154.9 9.47384C156.996 9.47384 158.846 9.92942 160.45 10.8406C162.041 11.7385 163.36 13.0566 164.266 14.6537C165.207 16.2861 165.678 18.213 165.679 20.4342C165.681 22.6554 165.21 24.5822 164.266 26.2146C163.357 27.8146 162.039 29.1385 160.45 30.0476C158.844 30.975 156.994 31.4379 154.9 31.4364ZM154.345 27.1398C155.463 27.1584 156.567 26.8822 157.547 26.3383C158.498 25.791 159.277 24.9835 159.793 24.0089C160.343 22.8961 160.629 21.6698 160.629 20.4264C160.629 19.1831 160.343 17.9568 159.793 16.844C159.273 15.8778 158.495 15.0778 157.547 14.5345C156.567 13.9906 155.463 13.7143 154.345 13.733C153.22 13.7157 152.111 13.9918 151.123 14.5345C150.166 15.0724 149.381 15.8733 148.857 16.844C148.307 17.9568 148.022 19.1831 148.022 20.4264C148.022 21.6698 148.307 22.8961 148.857 24.0089C149.376 24.988 150.163 25.7964 151.123 26.3383C152.111 26.881 153.22 27.157 154.345 27.1398Z" fill="white"/>
<path d="M0.0376282 30.9328V0.816162H13.684C16.4123 0.816162 18.7636 1.25775 20.738 2.14094C22.6074 2.94153 24.2014 4.28098 25.3203 5.99163C26.3994 7.66968 26.9389 9.65685 26.9389 11.9531C26.9389 14.2185 26.3994 16.1836 25.3203 17.8484C24.1926 19.5511 22.6013 20.8883 20.738 21.6991C18.7578 22.6117 16.4065 23.068 13.684 23.068H4.71621L8.46738 19.3697V30.9416L0.0376282 30.9328ZM8.47613 20.2639L4.71621 16.3492H13.1547C14.9177 16.3492 16.23 15.962 17.0918 15.1878C17.9536 14.4135 18.3867 13.3375 18.391 11.9597C18.391 10.5555 17.958 9.46549 17.0918 8.68976C16.2256 7.91402 14.9133 7.5269 13.1547 7.52837H4.71621L8.46738 3.61365L8.47613 20.2639Z" fill="white"/>
<path d="M31.0226 30.9328V0.816162H44.6602C47.387 0.816162 49.7383 1.25775 51.7142 2.14094C53.5836 2.94153 55.1776 4.28098 56.2965 5.99163C57.3756 7.66968 57.9151 9.65684 57.9151 11.9531C57.9151 14.2185 57.3756 16.1762 56.2965 17.8263C55.1701 19.5149 53.5765 20.8318 51.7142 21.613C49.7383 22.4873 47.387 22.9245 44.6602 22.9245H35.7099L39.4611 19.3542V30.9261L31.0226 30.9328ZM39.4611 20.2639L35.7099 16.3492H44.1484C45.9113 16.3492 47.2237 15.962 48.0855 15.1878C48.9473 14.4135 49.3803 13.3375 49.3847 11.9597C49.3847 10.5555 48.9516 9.46549 48.0855 8.68976C47.2193 7.91402 45.907 7.5269 44.1484 7.52837H35.7099L39.4611 3.61365V20.2639ZM49.4766 30.9328L42.0617 19.9614H51.0536L58.5232 30.9328H49.4766Z" fill="white"/>
<path d="M77.6049 31.5356C75.3512 31.5596 73.1123 31.166 70.9994 30.3742C69.0485 29.638 67.2614 28.5191 65.7412 27.0821C64.2624 25.6808 63.0814 23.9906 62.27 22.1142C61.4296 20.1446 61.0078 18.0189 61.032 15.8745C61.0078 13.7308 61.4296 11.6058 62.27 9.63699C63.0813 7.7599 64.2623 6.06894 65.7412 4.66687C67.2584 3.23081 69.0426 2.11264 70.9906 1.37701C75.2682 -0.171568 79.946 -0.171568 84.2236 1.37701C86.1448 2.09976 87.9036 3.20275 89.3967 4.6212C90.8897 6.03966 92.087 7.74497 92.918 9.63699C94.1953 12.5544 94.5472 15.7993 93.9253 18.9266C93.3035 22.0539 91.7383 24.9103 89.4446 27.1042C87.9344 28.5303 86.1601 29.6415 84.2236 30.3742C82.1069 31.1686 79.8631 31.5623 77.6049 31.5356ZM77.6049 24.4701C78.6922 24.4804 79.771 24.2764 80.7809 23.8695C81.7463 23.4782 82.618 22.8835 83.3378 22.1252C84.0797 21.338 84.6589 20.4095 85.0417 19.394C85.8669 17.1087 85.8669 14.6027 85.0417 12.3175C84.6545 11.31 84.0757 10.3889 83.3378 9.60608C82.6173 8.84917 81.7458 8.25537 80.7809 7.864C78.7409 7.06306 76.4777 7.06306 74.4378 7.864C73.4669 8.25658 72.59 8.85347 71.8655 9.61491C71.1276 10.3977 70.5488 11.3189 70.1616 12.3263C69.3392 14.6121 69.3392 17.117 70.1616 19.4028C70.5444 20.4184 71.1236 21.3468 71.8655 22.1341C72.5857 22.8919 73.4573 23.4864 74.4225 23.8784C75.4344 24.2859 76.5155 24.4899 77.6049 24.4789V24.4701Z" fill="white"/>
</svg>
